<svg viewBox="0.0 0.0 400.0 400.0" fill="none" stroke-linecap="square" stroke-miterlimit="10" xmlns="http://www.w3.org/2000/svg"><clipPath id="a"><path d="M0 0h400v400H0V0z"/></clipPath><g clip-path="url(#a)"><path d="M0 0h400v400H0z"/><path fill="#e3e3e3" d="M-.004 0h399.995v399.995H-.004z"/><path stroke="#e3e3e3" stroke-width="2" stroke-linejoin="round" stroke-linecap="butt" d="M-.004 0h399.995v399.995H-.004z"/><path fill="#ccc" d="M141.698 86.398c0-32.196 26.1-58.295 58.296-58.295a58.296 58.296 0 0 1 58.296 58.295c0 32.196-26.1 58.296-58.296 58.296s-58.296-26.1-58.296-58.296z"/><path stroke="#ccc" stroke-width="2" stroke-linejoin="round" stroke-linecap="butt" d="M141.698 86.398c0-32.196 26.1-58.295 58.296-58.295a58.296 58.296 0 0 1 58.296 58.295c0 32.196-26.1 58.296-58.296 58.296s-58.296-26.1-58.296-58.296z"/><path fill="#ccc" d="M100.596 376.675V266.071c0-61.085 44.502-110.604 99.398-110.604 54.896 0 99.398 49.52 99.398 110.604v110.604z"/><path stroke="#ccc" stroke-width="2" stroke-linejoin="round" stroke-linecap="butt" d="M100.596 376.675V266.071c0-61.085 44.502-110.604 99.398-110.604 54.896 0 99.398 49.52 99.398 110.604v110.604z"/></g></svg>