<?xml version="1.0" standalone="yes"?>

<svg version="1.1" viewBox="0.0 0.0 400.0 400.0" fill="none" stroke="none" stroke-linecap="square" stroke-miterlimit="10" xmlns="http://www.w3.org/2000/svg" xmlns:xlink="http://www.w3.org/1999/xlink"><clipPath id="p.0"><path d="m0 0l400.0 0l0 400.0l-400.0 0l0 -400.0z" clip-rule="nonzero"></path></clipPath><g clip-path="url(#p.0)"><path fill="#000000" fill-opacity="0.0" d="m0 0l400.0 0l0 400.0l-400.0 0z" fill-rule="nonzero"></path><path fill="#e3e3e3" d="m-0.0036648293 2.2913386E-4l399.99506 0l0 399.99503l-399.99506 0z" fill-rule="nonzero"></path><path stroke="#e3e3e3" stroke-width="2.0" stroke-linejoin="round" stroke-linecap="butt" d="m-0.0036648293 2.2913386E-4l399.99506 0l0 399.99503l-399.99506 0z" fill-rule="nonzero"></path><path fill="#cccccc" d="m141.69818 86.39831l0 0c0 -32.19582 26.099869 -58.295685 58.295685 -58.295685l0 0c15.460968 0 30.288712 6.1418495 41.221268 17.07441c10.932571 10.932564 17.074417 25.7603 17.074417 41.221275l0 0c0 32.195816 -26.099869 58.295692 -58.295685 58.295692l0 0c-32.195816 0 -58.295685 -26.099876 -58.295685 -58.295692z" fill-rule="nonzero"></path><path stroke="#cccccc" stroke-width="2.0" stroke-linejoin="round" stroke-linecap="butt" d="m141.69818 86.39831l0 0c0 -32.19582 26.099869 -58.295685 58.295685 -58.295685l0 0c15.460968 0 30.288712 6.1418495 41.221268 17.07441c10.932571 10.932564 17.074417 25.7603 17.074417 41.221275l0 0c0 32.195816 -26.099869 58.295692 -58.295685 58.295692l0 0c-32.195816 0 -58.295685 -26.099876 -58.295685 -58.295692z" fill-rule="nonzero"></path><path fill="#cccccc" d="m100.59578 376.67535l0 -110.60422l0 0c0 -61.085052 44.502045 -110.60426 99.39809 -110.60426c54.89604 0 99.39807 49.51921 99.39807 110.60426l0 110.60422z" fill-rule="nonzero"></path><path stroke="#cccccc" stroke-width="2.0" stroke-linejoin="round" stroke-linecap="butt" d="m100.59578 376.67535l0 -110.60422l0 0c0 -61.085052 44.502045 -110.60426 99.39809 -110.60426c54.89604 0 99.39807 49.51921 99.39807 110.60426l0 110.60422z" fill-rule="nonzero"></path></g></svg>

